<?xml version="1.0" encoding="UTF-8" standalone="no"?>
<!-- Generator: Adobe Illustrator 27.1.1, SVG Export Plug-In . SVG Version: 6.00 Build 0)  -->

<svg
   version="1.1"
   x="0px"
   y="0px"
   viewBox="0 0 51.770002 46.03"
   xml:space="preserve"
   id="svg768"
   sodipodi:docname="icon-light.svg"
   inkscape:version="1.2.2 (b0a8486541, 2022-12-01)"
   inkscape:export-filename="icon-light2.svg"
   inkscape:export-xdpi="1067.83"
   inkscape:export-ydpi="1067.83"
   width="51.77"
   height="46.029999"
   xmlns:inkscape="http://www.inkscape.org/namespaces/inkscape"
   xmlns:sodipodi="http://sodipodi.sourceforge.net/DTD/sodipodi-0.dtd"
   xmlns="http://www.w3.org/2000/svg"
   xmlns:svg="http://www.w3.org/2000/svg"><defs
   id="defs772" /><sodipodi:namedview
   id="namedview770"
   pagecolor="#1e2950"
   bordercolor="#666666"
   borderopacity="1.0"
   inkscape:showpageshadow="2"
   inkscape:pageopacity="0.0"
   inkscape:pagecheckerboard="0"
   inkscape:deskcolor="#d1d1d1"
   showgrid="false"
   inkscape:zoom="6.1454881"
   inkscape:cx="-6.6715612"
   inkscape:cy="31.405154"
   inkscape:window-width="1860"
   inkscape:window-height="995"
   inkscape:window-x="0"
   inkscape:window-y="0"
   inkscape:window-maximized="1"
   inkscape:current-layer="svg768" />
<style
   type="text/css"
   id="style758">
	.st0{fill:#282C34;}
</style>
<g
   id="logo"
   transform="translate(-44.98,-47.85)">
	<g
   id="g764"
   inkscape:label="icon"
   style="fill:#ffffff;fill-opacity:1">
		<polygon
   class="st0"
   points="92.92,51.69 91,51.69 91,53.61 89.08,53.61 89.08,51.69 89.08,49.77 89.08,47.85 87.17,47.85 85.25,47.85 85.25,49.77 85.25,51.69 85.25,53.61 83.33,53.61 83.33,51.69 81.41,51.69 81.41,49.77 79.5,49.77 77.58,49.77 77.58,51.69 77.58,53.61 79.5,53.61 79.5,55.53 81.41,55.53 81.41,57.44 81.41,59.36 79.5,59.36 79.5,61.28 77.58,61.28 77.58,63.2 77.58,65.11 79.5,65.11 81.41,65.11 81.41,63.2 83.33,63.2 83.33,61.28 85.25,61.28 85.25,63.2 85.25,65.11 85.25,67.03 87.17,67.03 89.08,67.03 89.08,65.11 89.08,63.2 89.08,61.28 91,61.28 91,63.2 92.92,63.2 92.92,65.11 94.84,65.11 96.75,65.11 96.75,63.2 96.75,61.28 94.84,61.28 94.84,59.36 92.92,59.36 92.92,57.44 92.92,55.53 94.84,55.53 94.84,53.61 96.75,53.61 96.75,51.69 96.75,49.77 94.84,49.77 92.92,49.77 "
   id="polygon760"
   inkscape:label="asterisk"
   style="fill:#ffffff;fill-opacity:1" />
		<polygon
   class="st0"
   points="66.07,47.85 66.07,49.77 66.07,51.69 64.15,51.69 64.15,53.61 64.15,55.53 62.24,55.53 62.24,57.44 62.24,59.36 60.32,59.36 60.32,61.28 60.32,63.2 58.4,63.2 58.4,65.11 58.4,67.03 56.48,67.03 56.48,68.95 56.48,70.87 54.57,70.87 54.57,72.78 54.57,74.7 52.65,74.7 52.65,76.62 52.65,78.54 50.73,78.54 50.73,80.45 50.73,82.37 48.81,82.37 48.81,84.29 48.81,86.21 46.9,86.21 46.9,88.12 46.9,90.04 44.98,90.04 44.98,91.96 44.98,93.88 46.9,93.88 48.81,93.88 50.73,93.88 50.73,91.96 50.73,90.04 52.65,90.04 52.65,88.12 52.65,86.21 54.57,86.21 54.57,84.29 54.57,82.37 56.48,82.37 56.48,80.45 56.48,78.54 58.4,78.54 58.4,76.62 58.4,74.7 60.32,74.7 60.32,72.78 60.32,70.87 62.24,70.87 62.24,68.95 62.24,67.03 64.15,67.03 64.15,65.11 64.15,63.2 66.07,63.2 66.07,61.28 66.07,59.36 67.99,59.36 67.99,57.44 67.99,55.53 69.91,55.53 69.91,53.61 69.91,51.69 71.82,51.69 71.82,49.77 71.82,47.85 69.91,47.85 67.99,47.85 "
   id="polygon762"
   inkscape:label="forward slash"
   style="fill:#ffffff;fill-opacity:1" />
	</g>
</g>

</svg>
