<?xml version="1.0" encoding="UTF-8" standalone="no"?>
<!-- Generator: Adobe Illustrator 27.1.1, SVG Export Plug-In . SVG Version: 6.00 Build 0)  -->

<svg
   version="1.1"
   x="0px"
   y="0px"
   viewBox="0 0 491.75001 181.91001"
   xml:space="preserve"
   id="svg480"
   sodipodi:docname="logo-light.svg"
   inkscape:version="1.2.2 (b0a8486541, 2022-12-01)"
   inkscape:export-filename="logo-light.svg"
   inkscape:export-xdpi="540.40002"
   inkscape:export-ydpi="540.40002"
   width="491.75"
   height="181.91002"
   xmlns:inkscape="http://www.inkscape.org/namespaces/inkscape"
   xmlns:sodipodi="http://sodipodi.sourceforge.net/DTD/sodipodi-0.dtd"
   xmlns="http://www.w3.org/2000/svg"
   xmlns:svg="http://www.w3.org/2000/svg"><defs
   id="defs484" /><sodipodi:namedview
   id="namedview482"
   pagecolor="#1e2950"
   bordercolor="#666666"
   borderopacity="1.0"
   inkscape:showpageshadow="2"
   inkscape:pageopacity="0.0"
   inkscape:pagecheckerboard="0"
   inkscape:deskcolor="#d1d1d1"
   showgrid="false"
   inkscape:zoom="2.3080979"
   inkscape:cx="200.16482"
   inkscape:cy="101.38218"
   inkscape:window-width="1860"
   inkscape:window-height="995"
   inkscape:window-x="0"
   inkscape:window-y="0"
   inkscape:window-maximized="1"
   inkscape:current-layer="logo" />
<style
   type="text/css"
   id="style368">
	.st0{fill:#282C34;}
</style>
<g
   id="logo"
   style="fill:#ffffff;fill-opacity:1"
   transform="translate(-48.09,-47.61)">
	<g
   id="g384"
   inkscape:label="wordmark (short club name)"
   style="fill:#ffffff;fill-opacity:1">
		<path
   class="st0"
   d="m 122.8,71.42 c 0,-14.15 10.69,-23.81 24.15,-23.81 10.49,0 16.35,5.52 19.6,11.25 L 158.13,63 c -1.93,-3.73 -6.07,-6.69 -11.18,-6.69 -8,0 -14.08,6.42 -14.08,15.11 0,8.69 6.07,15.11 14.08,15.11 5.11,0 9.25,-2.9 11.18,-6.69 l 8.42,4.07 c -3.31,5.73 -9.11,11.32 -19.6,11.32 C 133.49,95.22 122.8,85.56 122.8,71.42 Z"
   id="path370"
   style="fill:#ffffff;fill-opacity:1" />
		<path
   class="st0"
   d="m 194.02,47.61 c 13.94,0 24.08,9.94 24.08,23.81 0,13.87 -10.14,23.81 -24.08,23.81 -13.87,0 -24.01,-9.94 -24.01,-23.81 0,-13.87 10.14,-23.81 24.01,-23.81 z m 0,8.69 c -8.49,0 -13.94,6.49 -13.94,15.11 0,8.56 5.45,15.11 13.94,15.11 8.49,0 14.01,-6.55 14.01,-15.11 0,-8.62 -5.52,-15.11 -14.01,-15.11 z"
   id="path372"
   style="fill:#ffffff;fill-opacity:1" />
		<path
   class="st0"
   d="m 265.94,61.27 -12.97,33.12 h -4.28 L 235.72,61.27 v 33.12 h -9.8 V 48.37 h 13.73 l 11.18,28.7 11.18,-28.7 h 13.8 v 46.02 h -9.87 z"
   id="path374"
   style="fill:#ffffff;fill-opacity:1" />
		<path
   class="st0"
   d="m 286.14,48.37 h 21.53 c 10,0 15.46,6.76 15.46,14.83 0,8 -5.52,14.7 -15.46,14.7 h -11.73 v 16.49 h -9.8 z m 20.21,8.42 h -10.42 v 12.7 h 10.42 c 3.86,0 6.76,-2.48 6.76,-6.35 0.01,-3.8 -2.89,-6.35 -6.76,-6.35 z"
   id="path376"
   style="fill:#ffffff;fill-opacity:1" />
		<path
   class="st0"
   d="m 332.19,80.45 c 3.24,3.38 8.28,6.21 14.63,6.21 5.38,0 8,-2.55 8,-5.17 0,-3.45 -4,-4.62 -9.31,-5.87 -7.52,-1.73 -17.18,-3.79 -17.18,-14.08 0,-7.66 6.62,-13.87 17.46,-13.87 7.31,0 13.39,2.21 17.94,6.42 l -5.45,7.18 c -3.72,-3.45 -8.69,-5.04 -13.18,-5.04 -4.42,0 -6.76,1.93 -6.76,4.69 0,3.11 3.86,4.07 9.18,5.31 7.59,1.72 17.25,4 17.25,14.21 0,8.42 -6,14.77 -18.42,14.77 -8.83,0 -15.18,-2.97 -19.53,-7.31 z"
   id="path378"
   style="fill:#ffffff;fill-opacity:1" />
		<path
   class="st0"
   d="m 393.57,47.61 c 13.94,0 24.08,9.94 24.08,23.81 0,13.87 -10.14,23.81 -24.08,23.81 -13.87,0 -24.01,-9.94 -24.01,-23.81 0,-13.87 10.14,-23.81 24.01,-23.81 z m 0,8.69 c -8.49,0 -13.94,6.49 -13.94,15.11 0,8.56 5.45,15.11 13.94,15.11 8.49,0 14.01,-6.55 14.01,-15.11 -0.01,-8.62 -5.53,-15.11 -14.01,-15.11 z"
   id="path380"
   style="fill:#ffffff;fill-opacity:1" />
		<path
   class="st0"
   d="m 423.02,71.42 c 0,-14.15 10.7,-23.81 24.15,-23.81 10.49,0 16.35,5.52 19.6,11.25 L 458.35,63 c -1.93,-3.73 -6.07,-6.69 -11.18,-6.69 -8,0 -14.08,6.42 -14.08,15.11 0,8.69 6.07,15.11 14.08,15.11 5.11,0 9.25,-2.9 11.18,-6.69 l 8.42,4.07 c -3.31,5.73 -9.11,11.32 -19.6,11.32 -13.45,-0.01 -24.15,-9.67 -24.15,-23.81 z"
   id="path382"
   style="fill:#ffffff;fill-opacity:1" />
	</g>
	<g
   id="g460"
   inkscape:label="full club name"
   style="fill:#ffffff;fill-opacity:1">
		<path
   class="st0"
   d="m 122.34,129.69 h 4.32 v 11.88 c 0,2.79 1.53,4.71 4.65,4.71 3.06,0 4.59,-1.92 4.59,-4.71 v -11.88 h 4.32 v 12 c 0,4.98 -2.85,8.37 -8.91,8.37 -6.12,0 -8.97,-3.42 -8.97,-8.34 z"
   id="path386"
   style="fill:#ffffff;fill-opacity:1" />
		<path
   class="st0"
   d="m 154.38,140.94 c 0,-2.01 -1.05,-2.7 -2.67,-2.7 -1.5,0 -2.67,0.84 -3.3,1.71 v 9.75 h -3.81 v -14.49 h 3.81 v 1.89 c 0.93,-1.11 2.7,-2.25 5.07,-2.25 3.18,0 4.71,1.8 4.71,4.62 v 10.23 h -3.81 z"
   id="path388"
   style="fill:#ffffff;fill-opacity:1" />
		<path
   class="st0"
   d="m 161.97,130.8 c 0,-1.26 1.05,-2.28 2.28,-2.28 1.26,0 2.28,1.02 2.28,2.28 0,1.26 -1.02,2.28 -2.28,2.28 -1.23,0 -2.28,-1.02 -2.28,-2.28 z m 0.39,4.41 h 3.81 v 14.49 h -3.81 z"
   id="path390"
   style="fill:#ffffff;fill-opacity:1" />
		<path
   class="st0"
   d="m 168.56,135.21 h 4.08 l 3.78,10.08 3.78,-10.08 h 4.11 l -5.82,14.49 h -4.11 z"
   id="path392"
   style="fill:#ffffff;fill-opacity:1" />
		<path
   class="st0"
   d="m 192.72,134.85 c 4.32,0 7.26,3.24 7.26,7.98 v 0.84 h -10.77 c 0.24,1.83 1.71,3.36 4.17,3.36 1.35,0 2.94,-0.54 3.87,-1.44 l 1.68,2.46 c -1.47,1.35 -3.72,2.01 -5.97,2.01 -4.41,0 -7.74,-2.97 -7.74,-7.62 0,-4.2 3.09,-7.59 7.5,-7.59 z m -3.57,6.24 h 7.14 c -0.09,-1.38 -1.05,-3.21 -3.57,-3.21 -2.37,0 -3.39,1.77 -3.57,3.21 z"
   id="path394"
   style="fill:#ffffff;fill-opacity:1" />
		<path
   class="st0"
   d="m 203.26,135.21 h 3.81 v 1.98 c 1.02,-1.29 2.82,-2.31 4.62,-2.31 v 3.72 c -0.27,-0.06 -0.63,-0.09 -1.05,-0.09 -1.26,0 -2.94,0.69 -3.57,1.62 v 9.57 h -3.81 z"
   id="path396"
   style="fill:#ffffff;fill-opacity:1" />
		<path
   class="st0"
   d="m 215.18,145.14 c 1.05,0.99 3.21,1.98 5.01,1.98 1.65,0 2.43,-0.57 2.43,-1.47 0,-1.02 -1.26,-1.38 -2.91,-1.71 -2.49,-0.48 -5.7,-1.08 -5.7,-4.53 0,-2.43 2.13,-4.56 5.94,-4.56 2.46,0 4.41,0.84 5.82,1.98 l -1.5,2.61 c -0.87,-0.93 -2.52,-1.68 -4.29,-1.68 -1.38,0 -2.28,0.51 -2.28,1.35 0,0.9 1.14,1.23 2.76,1.56 2.49,0.48 5.82,1.14 5.82,4.74 0,2.67 -2.25,4.65 -6.27,4.65 -2.52,0 -4.95,-0.84 -6.48,-2.25 z"
   id="path398"
   style="fill:#ffffff;fill-opacity:1" />
		<path
   class="st0"
   d="m 229.17,130.8 c 0,-1.26 1.05,-2.28 2.28,-2.28 1.26,0 2.28,1.02 2.28,2.28 0,1.26 -1.02,2.28 -2.28,2.28 -1.23,0 -2.28,-1.02 -2.28,-2.28 z m 0.39,4.41 h 3.81 v 14.49 h -3.81 z"
   id="path400"
   style="fill:#ffffff;fill-opacity:1" />
		<path
   class="st0"
   d="m 238.39,146.1 v -7.56 h -2.4 v -3.33 h 2.4 v -3.96 h 3.84 v 3.96 h 2.94 v 3.33 h -2.94 v 6.54 c 0,0.9 0.48,1.59 1.32,1.59 0.57,0 1.11,-0.21 1.32,-0.42 l 0.81,2.88 c -0.57,0.51 -1.59,0.93 -3.18,0.93 -2.67,0 -4.11,-1.38 -4.11,-3.96 z"
   id="path402"
   style="fill:#ffffff;fill-opacity:1" />
		<path
   class="st0"
   d="m 250.34,152.19 c 0.99,0 1.65,-0.27 2.01,-1.05 l 0.54,-1.23 -5.88,-14.7 h 4.08 l 3.78,10.08 3.78,-10.08 h 4.11 l -6.81,16.86 c -1.08,2.73 -3,3.45 -5.49,3.51 -0.45,0 -1.41,-0.09 -1.89,-0.21 l 0.57,-3.42 c 0.33,0.15 0.84,0.24 1.2,0.24 z"
   id="path404"
   style="fill:#ffffff;fill-opacity:1" />
		<path
   class="st0"
   d="m 272.72,142.44 c 0,-4.11 2.88,-7.59 7.65,-7.59 4.8,0 7.68,3.48 7.68,7.59 0,4.14 -2.88,7.62 -7.68,7.62 -4.77,0 -7.65,-3.48 -7.65,-7.62 z m 11.37,0 c 0,-2.25 -1.35,-4.2 -3.72,-4.2 -2.37,0 -3.69,1.95 -3.69,4.2 0,2.28 1.32,4.23 3.69,4.23 2.37,0 3.72,-1.95 3.72,-4.23 z"
   id="path406"
   style="fill:#ffffff;fill-opacity:1" />
		<path
   class="st0"
   d="m 292.25,138.54 h -2.4 v -3.33 h 2.4 v -0.78 c 0,-3.15 2.04,-5.04 4.89,-5.04 1.08,0 2.07,0.24 2.76,0.6 l -0.78,2.7 c -0.33,-0.21 -0.78,-0.3 -1.23,-0.3 -1.08,0 -1.8,0.72 -1.8,2.1 v 0.72 h 2.94 v 3.33 h -2.94 v 11.16 h -3.84 z"
   id="path408"
   style="fill:#ffffff;fill-opacity:1" />
		<path
   class="st0"
   d="m 309.53,139.71 c 0,-6.15 4.65,-10.35 10.5,-10.35 4.56,0 7.11,2.4 8.52,4.89 l -3.66,1.8 c -0.84,-1.62 -2.64,-2.91 -4.86,-2.91 -3.48,0 -6.12,2.79 -6.12,6.57 0,3.78 2.64,6.57 6.12,6.57 2.22,0 4.02,-1.26 4.86,-2.91 l 3.66,1.77 c -1.44,2.49 -3.96,4.92 -8.52,4.92 -5.85,0 -10.5,-4.2 -10.5,-10.35 z"
   id="path410"
   style="fill:#ffffff;fill-opacity:1" />
		<path
   class="st0"
   d="m 341.71,147.87 c -1.14,1.41 -2.73,2.19 -4.47,2.19 -3.66,0 -6.42,-2.76 -6.42,-7.59 0,-4.74 2.73,-7.62 6.42,-7.62 1.71,0 3.33,0.75 4.47,2.22 v -1.86 h 3.84 v 14.49 h -3.84 z m 0,-7.95 c -0.66,-0.96 -2.01,-1.65 -3.3,-1.65 -2.16,0 -3.66,1.68 -3.66,4.2 0,2.49 1.5,4.2 3.66,4.2 1.29,0 2.64,-0.69 3.3,-1.65 z"
   id="path412"
   style="fill:#ffffff;fill-opacity:1" />
		<path
   class="st0"
   d="m 359.58,140.94 c 0,-2.01 -1.05,-2.7 -2.67,-2.7 -1.5,0 -2.67,0.84 -3.3,1.71 v 9.75 h -3.81 v -14.49 h 3.81 v 1.89 c 0.93,-1.11 2.7,-2.25 5.07,-2.25 3.18,0 4.71,1.8 4.71,4.62 v 10.23 h -3.81 z"
   id="path414"
   style="fill:#ffffff;fill-opacity:1" />
		<path
   class="st0"
   d="m 368.4,146.1 v -7.56 H 366 v -3.33 h 2.4 v -3.96 h 3.84 v 3.96 h 2.94 v 3.33 h -2.94 v 6.54 c 0,0.9 0.48,1.59 1.32,1.59 0.57,0 1.11,-0.21 1.32,-0.42 l 0.81,2.88 c -0.57,0.51 -1.59,0.93 -3.18,0.93 -2.67,0 -4.11,-1.38 -4.11,-3.96 z"
   id="path416"
   style="fill:#ffffff;fill-opacity:1" />
		<path
   class="st0"
   d="m 384.84,134.85 c 4.32,0 7.26,3.24 7.26,7.98 v 0.84 h -10.77 c 0.24,1.83 1.71,3.36 4.17,3.36 1.35,0 2.94,-0.54 3.87,-1.44 l 1.68,2.46 c -1.47,1.35 -3.72,2.01 -5.97,2.01 -4.41,0 -7.74,-2.97 -7.74,-7.62 0,-4.2 3.09,-7.59 7.5,-7.59 z m -3.57,6.24 h 7.14 c -0.09,-1.38 -1.05,-3.21 -3.57,-3.21 -2.37,0 -3.39,1.77 -3.57,3.21 z"
   id="path418"
   style="fill:#ffffff;fill-opacity:1" />
		<path
   class="st0"
   d="m 395.39,135.21 h 3.81 v 1.98 c 1.02,-1.29 2.82,-2.31 4.62,-2.31 v 3.72 c -0.27,-0.06 -0.63,-0.09 -1.05,-0.09 -1.26,0 -2.94,0.69 -3.57,1.62 v 9.57 h -3.81 z"
   id="path420"
   style="fill:#ffffff;fill-opacity:1" />
		<path
   class="st0"
   d="m 406.53,129.69 h 3.81 v 7.38 c 1.14,-1.47 2.76,-2.22 4.47,-2.22 3.69,0 6.42,2.88 6.42,7.62 0,4.83 -2.76,7.59 -6.42,7.59 -1.74,0 -3.33,-0.78 -4.47,-2.19 v 1.83 h -3.81 z m 7.08,16.98 c 2.22,0 3.69,-1.68 3.69,-4.2 0,-2.52 -1.47,-4.23 -3.69,-4.23 -1.23,0 -2.64,0.72 -3.27,1.68 v 5.13 c 0.63,0.93 2.04,1.62 3.27,1.62 z"
   id="path422"
   style="fill:#ffffff;fill-opacity:1" />
		<path
   class="st0"
   d="m 434.41,147.87 c -0.99,1.11 -2.73,2.19 -5.1,2.19 -3.18,0 -4.68,-1.74 -4.68,-4.56 v -10.29 h 3.81 V 144 c 0,2.01 1.05,2.67 2.67,2.67 1.47,0 2.64,-0.81 3.3,-1.65 v -9.81 h 3.81 v 14.49 h -3.81 z"
   id="path424"
   style="fill:#ffffff;fill-opacity:1" />
		<path
   class="st0"
   d="m 442.45,135.21 h 3.81 v 1.98 c 1.02,-1.29 2.82,-2.31 4.62,-2.31 v 3.72 c -0.27,-0.06 -0.63,-0.09 -1.05,-0.09 -1.26,0 -2.94,0.69 -3.57,1.62 v 9.57 h -3.81 z"
   id="path426"
   style="fill:#ffffff;fill-opacity:1" />
		<path
   class="st0"
   d="m 455.93,152.19 c 0.99,0 1.65,-0.27 2.01,-1.05 l 0.54,-1.23 -5.88,-14.7 h 4.08 l 3.78,10.08 3.78,-10.08 h 4.11 l -6.81,16.86 c -1.08,2.73 -3,3.45 -5.49,3.51 -0.45,0 -1.41,-0.09 -1.89,-0.21 l 0.57,-3.42 c 0.33,0.15 0.84,0.24 1.2,0.24 z"
   id="path428"
   style="fill:#ffffff;fill-opacity:1" />
		<path
   class="st0"
   d="m 168.88,174.71 c 0,-6.15 4.65,-10.35 10.5,-10.35 4.56,0 7.11,2.4 8.52,4.89 l -3.66,1.8 c -0.84,-1.62 -2.64,-2.91 -4.86,-2.91 -3.48,0 -6.12,2.79 -6.12,6.57 0,3.78 2.64,6.57 6.12,6.57 2.22,0 4.02,-1.26 4.86,-2.91 l 3.66,1.77 c -1.44,2.49 -3.96,4.92 -8.52,4.92 -5.85,0 -10.5,-4.2 -10.5,-10.35 z"
   id="path430"
   style="fill:#ffffff;fill-opacity:1" />
		<path
   class="st0"
   d="m 190.12,177.44 c 0,-4.11 2.88,-7.59 7.65,-7.59 4.8,0 7.68,3.48 7.68,7.59 0,4.14 -2.88,7.62 -7.68,7.62 -4.77,0 -7.65,-3.48 -7.65,-7.62 z m 11.37,0 c 0,-2.25 -1.35,-4.2 -3.72,-4.2 -2.37,0 -3.69,1.95 -3.69,4.2 0,2.28 1.32,4.23 3.69,4.23 2.37,0 3.72,-1.95 3.72,-4.23 z"
   id="path432"
   style="fill:#ffffff;fill-opacity:1" />
		<path
   class="st0"
   d="m 226.79,175.55 c 0,-1.35 -0.6,-2.31 -2.16,-2.31 -1.35,0 -2.46,0.9 -3,1.68 v 9.78 h -3.84 v -9.15 c 0,-1.35 -0.6,-2.31 -2.16,-2.31 -1.32,0 -2.43,0.9 -3,1.71 v 9.75 h -3.81 v -14.49 h 3.81 v 1.89 c 0.6,-0.87 2.52,-2.25 4.74,-2.25 2.13,0 3.48,0.99 4.02,2.64 0.84,-1.32 2.76,-2.64 4.98,-2.64 2.67,0 4.26,1.41 4.26,4.38 v 10.47 h -3.84 z"
   id="path434"
   style="fill:#ffffff;fill-opacity:1" />
		<path
   class="st0"
   d="m 234.87,190.22 v -20.01 h 3.81 v 1.83 c 1.11,-1.41 2.7,-2.19 4.47,-2.19 3.72,0 6.42,2.76 6.42,7.59 0,4.83 -2.7,7.62 -6.42,7.62 -1.71,0 -3.3,-0.72 -4.47,-2.22 v 7.38 z m 7.08,-16.98 c -1.23,0 -2.64,0.72 -3.27,1.65 v 5.13 c 0.63,0.9 2.04,1.65 3.27,1.65 2.19,0 3.66,-1.71 3.66,-4.23 -0.01,-2.49 -1.47,-4.2 -3.66,-4.2 z"
   id="path436"
   style="fill:#ffffff;fill-opacity:1" />
		<path
   class="st0"
   d="m 262.78,182.87 c -0.99,1.11 -2.73,2.19 -5.1,2.19 -3.18,0 -4.68,-1.74 -4.68,-4.56 v -10.29 h 3.81 V 179 c 0,2.01 1.05,2.67 2.67,2.67 1.47,0 2.64,-0.81 3.3,-1.65 v -9.81 h 3.81 v 14.49 h -3.81 z"
   id="path438"
   style="fill:#ffffff;fill-opacity:1" />
		<path
   class="st0"
   d="m 271.8,181.1 v -7.56 h -2.4 v -3.33 h 2.4 v -3.96 h 3.84 v 3.96 h 2.94 v 3.33 h -2.94 v 6.54 c 0,0.9 0.48,1.59 1.32,1.59 0.57,0 1.11,-0.21 1.32,-0.42 l 0.81,2.88 c -0.57,0.51 -1.59,0.93 -3.18,0.93 -2.67,0 -4.11,-1.38 -4.11,-3.96 z"
   id="path440"
   style="fill:#ffffff;fill-opacity:1" />
		<path
   class="st0"
   d="m 288.23,169.85 c 4.32,0 7.26,3.24 7.26,7.98 v 0.84 h -10.77 c 0.24,1.83 1.71,3.36 4.17,3.36 1.35,0 2.94,-0.54 3.87,-1.44 l 1.68,2.46 c -1.47,1.35 -3.72,2.01 -5.97,2.01 -4.41,0 -7.74,-2.97 -7.74,-7.62 0,-4.2 3.09,-7.59 7.5,-7.59 z m -3.57,6.24 h 7.14 c -0.09,-1.38 -1.05,-3.21 -3.57,-3.21 -2.37,0 -3.39,1.77 -3.57,3.21 z"
   id="path442"
   style="fill:#ffffff;fill-opacity:1" />
		<path
   class="st0"
   d="m 298.78,170.21 h 3.81 v 1.98 c 1.02,-1.29 2.82,-2.31 4.62,-2.31 v 3.72 c -0.27,-0.06 -0.63,-0.09 -1.05,-0.09 -1.26,0 -2.94,0.69 -3.57,1.62 v 9.57 h -3.81 z"
   id="path444"
   style="fill:#ffffff;fill-opacity:1" />
		<path
   class="st0"
   d="m 319.81,178.64 c 1.41,1.47 3.6,2.7 6.36,2.7 2.34,0 3.48,-1.11 3.48,-2.25 0,-1.5 -1.74,-2.01 -4.05,-2.55 -3.27,-0.75 -7.47,-1.65 -7.47,-6.12 0,-3.33 2.88,-6.03 7.59,-6.03 3.18,0 5.82,0.96 7.8,2.79 l -2.37,3.12 c -1.62,-1.5 -3.78,-2.19 -5.73,-2.19 -1.92,0 -2.94,0.84 -2.94,2.04 0,1.35 1.68,1.77 3.99,2.31 3.3,0.75 7.5,1.74 7.5,6.18 0,3.66 -2.61,6.42 -8.01,6.42 -3.84,0 -6.6,-1.29 -8.49,-3.18 z"
   id="path446"
   style="fill:#ffffff;fill-opacity:1" />
		<path
   class="st0"
   d="m 336.47,177.44 c 0,-4.11 2.88,-7.59 7.65,-7.59 4.8,0 7.68,3.48 7.68,7.59 0,4.14 -2.88,7.62 -7.68,7.62 -4.77,0 -7.65,-3.48 -7.65,-7.62 z m 11.37,0 c 0,-2.25 -1.35,-4.2 -3.72,-4.2 -2.37,0 -3.69,1.95 -3.69,4.2 0,2.28 1.32,4.23 3.69,4.23 2.37,0 3.72,-1.95 3.72,-4.23 z"
   id="path448"
   style="fill:#ffffff;fill-opacity:1" />
		<path
   class="st0"
   d="m 361.98,169.85 c 2.97,0 4.77,1.29 5.73,2.64 l -2.49,2.31 c -0.69,-0.99 -1.74,-1.56 -3.06,-1.56 -2.31,0 -3.93,1.68 -3.93,4.2 0,2.52 1.62,4.23 3.93,4.23 1.32,0 2.37,-0.6 3.06,-1.56 l 2.49,2.31 c -0.96,1.35 -2.76,2.64 -5.73,2.64 -4.47,0 -7.68,-3.15 -7.68,-7.62 0,-4.44 3.21,-7.59 7.68,-7.59 z"
   id="path450"
   style="fill:#ffffff;fill-opacity:1" />
		<path
   class="st0"
   d="m 370.16,165.8 c 0,-1.26 1.05,-2.28 2.28,-2.28 1.26,0 2.28,1.02 2.28,2.28 0,1.26 -1.02,2.28 -2.28,2.28 -1.23,0 -2.28,-1.02 -2.28,-2.28 z m 0.39,4.41 h 3.81 v 14.49 h -3.81 z"
   id="path452"
   style="fill:#ffffff;fill-opacity:1" />
		<path
   class="st0"
   d="m 385.11,169.85 c 4.32,0 7.26,3.24 7.26,7.98 v 0.84 H 381.6 c 0.24,1.83 1.71,3.36 4.17,3.36 1.35,0 2.94,-0.54 3.87,-1.44 l 1.68,2.46 c -1.47,1.35 -3.72,2.01 -5.97,2.01 -4.41,0 -7.74,-2.97 -7.74,-7.62 0,-4.2 3.09,-7.59 7.5,-7.59 z m -3.57,6.24 h 7.14 c -0.09,-1.38 -1.05,-3.21 -3.57,-3.21 -2.37,0 -3.39,1.77 -3.57,3.21 z"
   id="path454"
   style="fill:#ffffff;fill-opacity:1" />
		<path
   class="st0"
   d="m 396.48,181.1 v -7.56 h -2.4 v -3.33 h 2.4 v -3.96 h 3.84 v 3.96 h 2.94 v 3.33 h -2.94 v 6.54 c 0,0.9 0.48,1.59 1.32,1.59 0.57,0 1.11,-0.21 1.32,-0.42 l 0.81,2.88 c -0.57,0.51 -1.59,0.93 -3.18,0.93 -2.66,0 -4.11,-1.38 -4.11,-3.96 z"
   id="path456"
   style="fill:#ffffff;fill-opacity:1" />
		<path
   class="st0"
   d="m 408.43,187.19 c 0.99,0 1.65,-0.27 2.01,-1.05 l 0.54,-1.23 -5.88,-14.7 h 4.08 l 3.78,10.08 3.78,-10.08 h 4.11 l -6.81,16.86 c -1.08,2.73 -3,3.45 -5.49,3.51 -0.45,0 -1.41,-0.09 -1.89,-0.21 l 0.57,-3.42 c 0.33,0.15 0.84,0.24 1.2,0.24 z"
   id="path458"
   style="fill:#ffffff;fill-opacity:1" />
	</g>
	<g
   id="g466"
   inkscape:label="left icon"
   style="fill:#ffffff;fill-opacity:1">
		<polygon
   class="st0"
   points="96.03,52.21 94.12,52.21 94.12,54.12 92.2,54.12 92.2,52.21 92.2,50.29 92.2,48.37 90.28,48.37 88.36,48.37 88.36,50.29 88.36,52.21 88.36,54.12 86.45,54.12 86.45,52.21 84.53,52.21 84.53,50.29 82.61,50.29 80.69,50.29 80.69,52.21 80.69,54.12 82.61,54.12 82.61,56.04 84.53,56.04 84.53,57.96 84.53,59.88 82.61,59.88 82.61,61.79 80.69,61.79 80.69,63.71 80.69,65.63 82.61,65.63 84.53,65.63 84.53,63.71 86.45,63.71 86.45,61.79 88.36,61.79 88.36,63.71 88.36,65.63 88.36,67.55 90.28,67.55 92.2,67.55 92.2,65.63 92.2,63.71 92.2,61.79 94.12,61.79 94.12,63.71 96.03,63.71 96.03,65.63 97.95,65.63 99.87,65.63 99.87,63.71 99.87,61.79 97.95,61.79 97.95,59.88 96.03,59.88 96.03,57.96 96.03,56.04 97.95,56.04 97.95,54.12 99.87,54.12 99.87,52.21 99.87,50.29 97.95,50.29 96.03,50.29 "
   id="polygon462"
   inkscape:label="asterisk"
   style="fill:#ffffff;fill-opacity:1" />
		<polygon
   class="st0"
   points="69.19,48.37 69.19,50.29 69.19,52.21 67.27,52.21 67.27,54.12 67.27,56.04 65.35,56.04 65.35,57.96 65.35,59.88 63.43,59.88 63.43,61.79 63.43,63.71 61.52,63.71 61.52,65.63 61.52,67.55 59.6,67.55 59.6,69.46 59.6,71.38 57.68,71.38 57.68,73.3 57.68,75.22 55.76,75.22 55.76,77.13 55.76,79.05 53.85,79.05 53.85,80.97 53.85,82.89 51.93,82.89 51.93,84.81 51.93,86.72 50.01,86.72 50.01,88.64 50.01,90.56 48.09,90.56 48.09,92.48 48.09,94.39 50.01,94.39 51.93,94.39 53.85,94.39 53.85,92.48 53.85,90.56 55.76,90.56 55.76,88.64 55.76,86.72 57.68,86.72 57.68,84.81 57.68,82.89 59.6,82.89 59.6,80.97 59.6,79.05 61.52,79.05 61.52,77.13 61.52,75.22 63.43,75.22 63.43,73.3 63.43,71.38 65.35,71.38 65.35,69.46 65.35,67.55 67.27,67.55 67.27,65.63 67.27,63.71 69.19,63.71 69.19,61.79 69.19,59.88 71.1,59.88 71.1,57.96 71.1,56.04 73.02,56.04 73.02,54.12 73.02,52.21 74.94,52.21 74.94,50.29 74.94,48.37 73.02,48.37 71.1,48.37 "
   id="polygon464"
   inkscape:label="forward slash"
   style="fill:#ffffff;fill-opacity:1" />
	</g>
	<g
   id="g472"
   inkscape:label="right icon"
   style="fill:#ffffff;fill-opacity:1">
		<polygon
   class="st0"
   points="509.16,52.21 507.24,52.21 507.24,54.12 505.32,54.12 505.32,52.21 505.32,50.29 505.32,48.37 503.4,48.37 501.49,48.37 501.49,50.29 501.49,52.21 501.49,54.12 499.57,54.12 499.57,52.21 497.65,52.21 497.65,50.29 495.73,50.29 493.82,50.29 493.82,52.21 493.82,54.12 495.73,54.12 495.73,56.04 497.65,56.04 497.65,57.96 497.65,59.88 495.73,59.88 495.73,61.79 493.82,61.79 493.82,63.71 493.82,65.63 495.73,65.63 497.65,65.63 497.65,63.71 499.57,63.71 499.57,61.79 501.49,61.79 501.49,63.71 501.49,65.63 501.49,67.55 503.4,67.55 505.32,67.55 505.32,65.63 505.32,63.71 505.32,61.79 507.24,61.79 507.24,63.71 509.16,63.71 509.16,65.63 511.07,65.63 512.99,65.63 512.99,63.71 512.99,61.79 511.07,61.79 511.07,59.88 509.16,59.88 509.16,57.96 509.16,56.04 511.07,56.04 511.07,54.12 512.99,54.12 512.99,52.21 512.99,50.29 511.07,50.29 509.16,50.29 "
   id="polygon468"
   inkscape:label="asterisk"
   style="fill:#ffffff;fill-opacity:1" />
		<polygon
   class="st0"
   points="534.09,48.37 534.09,50.29 534.09,52.21 532.17,52.21 532.17,54.12 532.17,56.04 530.25,56.04 530.25,57.96 530.25,59.88 528.33,59.88 528.33,61.79 528.33,63.71 526.41,63.71 526.41,65.63 526.41,67.55 524.5,67.55 524.5,69.46 524.5,71.38 522.58,71.38 522.58,73.3 522.58,75.22 520.66,75.22 520.66,77.13 520.66,79.05 518.74,79.05 518.74,80.97 518.74,82.89 516.83,82.89 516.83,84.81 516.83,86.72 514.91,86.72 514.91,88.64 514.91,90.56 512.99,90.56 512.99,92.48 512.99,94.39 514.91,94.39 516.83,94.39 518.74,94.39 518.74,92.48 518.74,90.56 520.66,90.56 520.66,88.64 520.66,86.72 522.58,86.72 522.58,84.81 522.58,82.89 524.5,82.89 524.5,80.97 524.5,79.05 526.41,79.05 526.41,77.13 526.41,75.22 528.33,75.22 528.33,73.3 528.33,71.38 530.25,71.38 530.25,69.46 530.25,67.55 532.17,67.55 532.17,65.63 532.17,63.71 534.09,63.71 534.09,61.79 534.09,59.88 536,59.88 536,57.96 536,56.04 537.92,56.04 537.92,54.12 537.92,52.21 539.84,52.21 539.84,50.29 539.84,48.37 537.92,48.37 536,48.37 "
   id="polygon470"
   inkscape:label="forward slash"
   style="fill:#ffffff;fill-opacity:1" />
	</g>
	<g
   id="g476"
   inkscape:label="tilde"
   style="fill:#ffffff;fill-opacity:1">
		<path
   class="st0"
   d="m 288.16,224.01 c -1.9,0 -3.62,1.35 -5.11,4.08 l -4.25,-3.15 c 2.95,-4.8 6.29,-6.68 9.5,-6.68 5.58,0 8.23,5.52 12.06,5.52 1.95,0 3.62,-1.35 5.11,-4.08 l 4.25,3.2 c -2.95,4.75 -6.29,6.62 -9.49,6.62 -5.58,0.01 -8.23,-5.51 -12.07,-5.51 z"
   id="path474"
   style="fill:#ffffff;fill-opacity:1" />
	</g>
</g>

</svg>
