<?xml version="1.0" encoding="UTF-8" standalone="no"?>
<!-- Generator: Adobe Illustrator 27.1.1, SVG Export Plug-In . SVG Version: 6.00 Build 0)  -->

<svg
   version="1.1"
   x="0px"
   y="0px"
   viewBox="0 0 491.75001 47.619998"
   xml:space="preserve"
   id="svg635"
   sodipodi:docname="wordmark-light.svg"
   inkscape:version="1.2.2 (b0a8486541, 2022-12-01)"
   inkscape:export-filename="wordmark-light2.svg"
   inkscape:export-xdpi="516.09003"
   inkscape:export-ydpi="516.09003"
   width="491.75"
   height="47.619999"
   xmlns:inkscape="http://www.inkscape.org/namespaces/inkscape"
   xmlns:sodipodi="http://sodipodi.sourceforge.net/DTD/sodipodi-0.dtd"
   xmlns="http://www.w3.org/2000/svg"
   xmlns:svg="http://www.w3.org/2000/svg"><defs
   id="defs639" /><sodipodi:namedview
   id="namedview637"
   pagecolor="#1e2950"
   bordercolor="#666666"
   borderopacity="1.0"
   inkscape:showpageshadow="2"
   inkscape:pageopacity="0.0"
   inkscape:pagecheckerboard="0"
   inkscape:deskcolor="#d1d1d1"
   showgrid="false"
   inkscape:zoom="2.3080979"
   inkscape:cx="189.33339"
   inkscape:cy="24.262402"
   inkscape:window-width="1860"
   inkscape:window-height="995"
   inkscape:window-x="0"
   inkscape:window-y="0"
   inkscape:window-maximized="1"
   inkscape:current-layer="svg635" />
<style
   type="text/css"
   id="style603">
	.st0{fill:#282C34;}
</style>
<g
   id="logo"
   style="fill:#ffffff;fill-opacity:1"
   transform="translate(-48.09,-47.61)">
	<g
   id="g619"
   inkscape:label="wordmark"
   style="fill:#ffffff;fill-opacity:1">
		<path
   class="st0"
   d="m 122.8,71.42 c 0,-14.15 10.7,-23.81 24.15,-23.81 10.49,0 16.35,5.52 19.6,11.25 L 158.13,63 c -1.93,-3.73 -6.07,-6.69 -11.18,-6.69 -8,0 -14.08,6.42 -14.08,15.11 0,8.69 6.07,15.11 14.08,15.11 5.11,0 9.25,-2.9 11.18,-6.69 l 8.42,4.07 c -3.31,5.73 -9.11,11.32 -19.6,11.32 C 133.49,95.22 122.8,85.56 122.8,71.42 Z"
   id="path605"
   style="fill:#ffffff;fill-opacity:1" />
		<path
   class="st0"
   d="m 194.02,47.61 c 13.94,0 24.08,9.94 24.08,23.81 0,13.87 -10.14,23.81 -24.08,23.81 -13.87,0 -24.01,-9.94 -24.01,-23.81 0,-13.87 10.14,-23.81 24.01,-23.81 z m 0,8.69 c -8.49,0 -13.94,6.49 -13.94,15.11 0,8.56 5.45,15.11 13.94,15.11 8.49,0 14.01,-6.55 14.01,-15.11 0,-8.62 -5.52,-15.11 -14.01,-15.11 z"
   id="path607"
   style="fill:#ffffff;fill-opacity:1" />
		<path
   class="st0"
   d="m 265.94,61.27 -12.97,33.12 h -4.28 L 235.72,61.27 v 33.12 h -9.8 V 48.37 h 13.73 l 11.18,28.7 11.18,-28.7 h 13.8 v 46.02 h -9.87 z"
   id="path609"
   style="fill:#ffffff;fill-opacity:1" />
		<path
   class="st0"
   d="m 286.13,48.37 h 21.53 c 10,0 15.46,6.76 15.46,14.83 0,8 -5.52,14.7 -15.46,14.7 h -11.73 v 16.49 h -9.8 z m 20.22,8.42 h -10.42 v 12.7 h 10.42 c 3.86,0 6.76,-2.48 6.76,-6.35 0,-3.8 -2.89,-6.35 -6.76,-6.35 z"
   id="path611"
   style="fill:#ffffff;fill-opacity:1" />
		<path
   class="st0"
   d="m 332.19,80.45 c 3.24,3.38 8.28,6.21 14.63,6.21 5.38,0 8,-2.55 8,-5.17 0,-3.45 -4,-4.62 -9.32,-5.87 -7.52,-1.73 -17.18,-3.79 -17.18,-14.08 0,-7.66 6.62,-13.87 17.46,-13.87 7.31,0 13.39,2.21 17.94,6.42 l -5.45,7.18 c -3.73,-3.45 -8.69,-5.04 -13.18,-5.04 -4.42,0 -6.76,1.93 -6.76,4.69 0,3.11 3.86,4.07 9.18,5.31 7.59,1.72 17.25,4 17.25,14.21 0,8.42 -6,14.77 -18.42,14.77 -8.83,0 -15.18,-2.97 -19.53,-7.31 z"
   id="path613"
   style="fill:#ffffff;fill-opacity:1" />
		<path
   class="st0"
   d="m 393.57,47.61 c 13.94,0 24.08,9.94 24.08,23.81 0,13.87 -10.14,23.81 -24.08,23.81 -13.87,0 -24.01,-9.94 -24.01,-23.81 0,-13.87 10.14,-23.81 24.01,-23.81 z m 0,8.69 c -8.49,0 -13.94,6.49 -13.94,15.11 0,8.56 5.45,15.11 13.94,15.11 8.49,0 14.01,-6.55 14.01,-15.11 -0.01,-8.62 -5.53,-15.11 -14.01,-15.11 z"
   id="path615"
   style="fill:#ffffff;fill-opacity:1" />
		<path
   class="st0"
   d="m 423.02,71.42 c 0,-14.15 10.7,-23.81 24.15,-23.81 10.49,0 16.35,5.52 19.6,11.25 L 458.35,63 c -1.93,-3.73 -6.07,-6.69 -11.18,-6.69 -8,0 -14.08,6.42 -14.08,15.11 0,8.69 6.07,15.11 14.08,15.11 5.11,0 9.25,-2.9 11.18,-6.69 l 8.42,4.07 c -3.31,5.73 -9.11,11.32 -19.6,11.32 -13.45,-0.01 -24.15,-9.67 -24.15,-23.81 z"
   id="path617"
   style="fill:#ffffff;fill-opacity:1" />
	</g>
	<g
   id="g625"
   inkscape:label="left icon"
   style="fill:#ffffff;fill-opacity:1">
		<polygon
   class="st0"
   points="96.03,52.21 94.12,52.21 94.12,54.12 92.2,54.12 92.2,52.21 92.2,50.29 92.2,48.37 90.28,48.37 88.36,48.37 88.36,50.29 88.36,52.21 88.36,54.12 86.45,54.12 86.45,52.21 84.53,52.21 84.53,50.29 82.61,50.29 80.69,50.29 80.69,52.21 80.69,54.12 82.61,54.12 82.61,56.04 84.53,56.04 84.53,57.96 84.53,59.88 82.61,59.88 82.61,61.79 80.69,61.79 80.69,63.71 80.69,65.63 82.61,65.63 84.53,65.63 84.53,63.71 86.45,63.71 86.45,61.79 88.36,61.79 88.36,63.71 88.36,65.63 88.36,67.55 90.28,67.55 92.2,67.55 92.2,65.63 92.2,63.71 92.2,61.79 94.12,61.79 94.12,63.71 96.03,63.71 96.03,65.63 97.95,65.63 99.87,65.63 99.87,63.71 99.87,61.79 97.95,61.79 97.95,59.88 96.03,59.88 96.03,57.96 96.03,56.04 97.95,56.04 97.95,54.12 99.87,54.12 99.87,52.21 99.87,50.29 97.95,50.29 96.03,50.29 "
   id="polygon621"
   inkscape:label="asterisk"
   style="fill:#ffffff;fill-opacity:1" />
		<polygon
   class="st0"
   points="69.19,48.37 69.19,50.29 69.19,52.21 67.27,52.21 67.27,54.12 67.27,56.04 65.35,56.04 65.35,57.96 65.35,59.88 63.43,59.88 63.43,61.79 63.43,63.71 61.52,63.71 61.52,65.63 61.52,67.55 59.6,67.55 59.6,69.46 59.6,71.38 57.68,71.38 57.68,73.3 57.68,75.22 55.76,75.22 55.76,77.13 55.76,79.05 53.85,79.05 53.85,80.97 53.85,82.89 51.93,82.89 51.93,84.81 51.93,86.72 50.01,86.72 50.01,88.64 50.01,90.56 48.09,90.56 48.09,92.48 48.09,94.39 50.01,94.39 51.93,94.39 53.85,94.39 53.85,92.48 53.85,90.56 55.76,90.56 55.76,88.64 55.76,86.72 57.68,86.72 57.68,84.81 57.68,82.89 59.6,82.89 59.6,80.97 59.6,79.05 61.52,79.05 61.52,77.13 61.52,75.22 63.43,75.22 63.43,73.3 63.43,71.38 65.35,71.38 65.35,69.46 65.35,67.55 67.27,67.55 67.27,65.63 67.27,63.71 69.19,63.71 69.19,61.79 69.19,59.88 71.1,59.88 71.1,57.96 71.1,56.04 73.02,56.04 73.02,54.12 73.02,52.21 74.94,52.21 74.94,50.29 74.94,48.37 73.02,48.37 71.1,48.37 "
   id="polygon623"
   inkscape:label="forward slash"
   style="fill:#ffffff;fill-opacity:1" />
	</g>
	<g
   id="g631"
   inkscape:label="right icon"
   style="fill:#ffffff;fill-opacity:1">
		<polygon
   class="st0"
   points="509.16,52.21 507.24,52.21 507.24,54.12 505.32,54.12 505.32,52.21 505.32,50.29 505.32,48.37 503.4,48.37 501.49,48.37 501.49,50.29 501.49,52.21 501.49,54.12 499.57,54.12 499.57,52.21 497.65,52.21 497.65,50.29 495.73,50.29 493.82,50.29 493.82,52.21 493.82,54.12 495.73,54.12 495.73,56.04 497.65,56.04 497.65,57.96 497.65,59.88 495.73,59.88 495.73,61.79 493.82,61.79 493.82,63.71 493.82,65.63 495.73,65.63 497.65,65.63 497.65,63.71 499.57,63.71 499.57,61.79 501.49,61.79 501.49,63.71 501.49,65.63 501.49,67.55 503.4,67.55 505.32,67.55 505.32,65.63 505.32,63.71 505.32,61.79 507.24,61.79 507.24,63.71 509.16,63.71 509.16,65.63 511.07,65.63 512.99,65.63 512.99,63.71 512.99,61.79 511.07,61.79 511.07,59.88 509.16,59.88 509.16,57.96 509.16,56.04 511.07,56.04 511.07,54.12 512.99,54.12 512.99,52.21 512.99,50.29 511.07,50.29 509.16,50.29 "
   id="polygon627"
   inkscape:label="asterisk"
   style="fill:#ffffff;fill-opacity:1" />
		<polygon
   class="st0"
   points="534.09,48.37 534.09,50.29 534.09,52.21 532.17,52.21 532.17,54.12 532.17,56.04 530.25,56.04 530.25,57.96 530.25,59.88 528.33,59.88 528.33,61.79 528.33,63.71 526.41,63.71 526.41,65.63 526.41,67.55 524.5,67.55 524.5,69.46 524.5,71.38 522.58,71.38 522.58,73.3 522.58,75.22 520.66,75.22 520.66,77.13 520.66,79.05 518.74,79.05 518.74,80.97 518.74,82.89 516.83,82.89 516.83,84.81 516.83,86.72 514.91,86.72 514.91,88.64 514.91,90.56 512.99,90.56 512.99,92.48 512.99,94.39 514.91,94.39 516.83,94.39 518.74,94.39 518.74,92.48 518.74,90.56 520.66,90.56 520.66,88.64 520.66,86.72 522.58,86.72 522.58,84.81 522.58,82.89 524.5,82.89 524.5,80.97 524.5,79.05 526.41,79.05 526.41,77.13 526.41,75.22 528.33,75.22 528.33,73.3 528.33,71.38 530.25,71.38 530.25,69.46 530.25,67.55 532.17,67.55 532.17,65.63 532.17,63.71 534.09,63.71 534.09,61.79 534.09,59.88 536,59.88 536,57.96 536,56.04 537.92,56.04 537.92,54.12 537.92,52.21 539.84,52.21 539.84,50.29 539.84,48.37 537.92,48.37 536,48.37 "
   id="polygon629"
   inkscape:label="forward slash"
   style="fill:#ffffff;fill-opacity:1" />
	</g>
</g>

</svg>
